<?xml version="1.0" encoding="UTF-8" standalone="no"?>
<svg
   xmlns:dc="http://purl.org/dc/elements/1.1/"
   xmlns:cc="http://creativecommons.org/ns#"
   xmlns:rdf="http://www.w3.org/1999/02/22-rdf-syntax-ns#"
   xmlns:svg="http://www.w3.org/2000/svg"
   xmlns="http://www.w3.org/2000/svg"
   xmlns:sodipodi="http://sodipodi.sourceforge.net/DTD/sodipodi-0.dtd"
   xmlns:inkscape="http://www.inkscape.org/namespaces/inkscape"
   width="512px"
   height="512px"
   viewBox="0 0 512 512"
   aria-hidden="true"
   role="img"
   class="iconify iconify--fxemoji"
   preserveAspectRatio="xMidYMid meet"
   version="1.1"
   id="svg10"
   sodipodi:docname="tiger-svgrepo-com.svg"
   inkscape:version="1.0.2 (e86c870879, 2021-01-15)">
  <metadata
     id="metadata16">
    <rdf:RDF>
      <cc:Work
         rdf:about="">
        <dc:format>image/svg+xml</dc:format>
        <dc:type
           rdf:resource="http://purl.org/dc/dcmitype/StillImage" />
      </cc:Work>
    </rdf:RDF>
  </metadata>
  <defs
     id="defs14" />
  <sodipodi:namedview
     pagecolor="#ffffff"
     bordercolor="#666666"
     borderopacity="1"
     objecttolerance="10"
     gridtolerance="10"
     guidetolerance="10"
     inkscape:pageopacity="0"
     inkscape:pageshadow="2"
     inkscape:window-width="1920"
     inkscape:window-height="1051"
     id="namedview12"
     showgrid="false"
     inkscape:zoom="0.57176212"
     inkscape:cx="168.33538"
     inkscape:cy="190.26905"
     inkscape:window-x="3440"
     inkscape:window-y="0"
     inkscape:window-maximized="1"
     inkscape:current-layer="svg10" />
  <g
     id="g865"
     transform="matrix(1.8987473,0,0,1.8987473,-200.62927,-204.86795)">
    <path
       fill="#ffb636"
       d="m 345.47827,251.22075 c -0.001,-0.10244 -0.006,-0.20391 -0.008,-0.30586 a 45.839345,45.839345 0 0 0 -0.043,-1.27707 46.088671,46.088671 0 0 0 -0.0725,-1.23359 55.844777,55.844777 0 0 0 -0.0986,-1.18816 51.324527,51.324527 0 0 0 -0.10388,-0.99103 l -0.0179,-0.15124 a 49.329915,49.329915 0 0 0 -3.46496,-13.20077 c -0.0213,-5.44073 -0.6238,-10.84183 -1.7477,-16.14389 17.20835,-20.323 19.20345,-45.90989 16.79571,-66.64409 -2.57348,-22.16058 -27.07367,-34.45344 -46.47861,-23.44635 -9.55413,5.41947 -19.4233,12.72628 -27.524,22.44663 -12.81567,-5.663 -27.10748,-8.90472 -42.24344,-8.90472 -15.12532,0 -29.40844,3.23593 -42.21734,8.89167 -8.09876,-9.71358 -17.9631,-17.01701 -27.51337,-22.43406 -19.40494,-11.00709 -43.90513,1.28577 -46.47861,23.44635 -2.40629,20.72164 -0.41506,46.29064 16.76479,66.60737 -1.14951,5.41125 -1.75736,10.92591 -1.75736,16.48067 0,0.18554 0.007,0.36916 0.008,0.55422 -1.54524,3.90756 -2.61889,8.04223 -3.12866,12.34649 l -0.0179,0.15124 a 47.765827,47.765827 0 0 0 -0.13867,1.37033 44.84977,44.84977 0 0 0 -0.0995,1.35486 54.108672,54.108672 0 0 0 -0.0623,1.33216 c -0.007,0.21067 -0.013,0.42134 -0.0174,0.6325 -0.002,0.10195 -0.007,0.20342 -0.008,0.30586 -0.002,0.13046 0,0.26044 -9.7e-4,0.3909 -9.6e-4,0.11113 -0.004,0.2213 -0.004,0.33292 0,0.0551 0.003,0.1092 0.003,0.1638 0.002,0.59432 0.0135,1.18672 0.0362,1.77621 0.004,0.10099 0.01,0.20101 0.014,0.30151 0.0256,0.57306 0.0594,1.14371 0.10437,1.71195 0.004,0.0517 0.007,0.10388 0.0111,0.15558 a 48.564541,48.564541 0 0 0 0.22372,2.12459 c 0.0725,0.57645 0.15365,1.15 0.24594,1.72016 0.0155,0.0957 0.0329,0.19038 0.0488,0.28557 0.0928,0.55132 0.19328,1.10022 0.30393,1.64575 0.0111,0.0541 0.0208,0.10871 0.0319,0.16283 0.1179,0.57065 0.24788,1.13647 0.38511,1.69987 0.028,0.11451 0.0556,0.22903 0.0846,0.34306 0.13916,0.55422 0.28654,1.10506 0.44454,1.65203 0.0256,0.0889 0.0527,0.17637 0.0788,0.26527 0.1551,0.52716 0.31794,1.05046 0.48996,1.57037 l 0.0541,0.16767 c 0.18217,0.54407 0.37592,1.08331 0.57645,1.61917 0.0411,0.1092 0.0817,0.2184 0.1237,0.32761 0.20197,0.52764 0.41119,1.0519 0.63008,1.57085 0.0348,0.0826 0.071,0.16428 0.1063,0.24643 0.21357,0.49865 0.43439,0.99344 0.66342,1.48387 l 0.0773,0.16864 a 49.234243,49.234243 0 0 0 0.75571,1.52736 c 0.0532,0.10292 0.10582,0.20584 0.15945,0.30828 0.26044,0.49769 0.52813,0.99151 0.805,1.48001 0.0425,0.0754 0.087,0.14979 0.12998,0.22469 0.26817,0.46724 0.5431,0.93014 0.82529,1.3882 0.0338,0.0551 0.0667,0.11114 0.10098,0.16622 0.2991,0.48029 0.60786,0.9543 0.92242,1.42445 0.0638,0.0952 0.12756,0.19038 0.19231,0.28508 0.31552,0.46435 0.63781,0.92435 0.96879,1.37806 0.0488,0.0667 0.0986,0.1324 0.14786,0.19908 0.31842,0.43245 0.64361,0.85959 0.97556,1.2819 0.0425,0.0541 0.0841,0.1092 0.12708,0.16284 a 51.460787,51.460787 0 0 0 1.29882,1.5694 c 0.36674,0.42617 0.73928,0.848 1.11955,1.26209 0.0536,0.0585 0.10824,0.11549 0.16235,0.17347 a 50.870327,50.870327 0 0 0 1.11617,1.16739 l 0.14931,0.15269 a 51.948809,51.948809 0 0 0 1.46793,1.41623 c 0.41361,0.38462 0.83302,0.76344 1.25968,1.13453 0.057,0.0498 0.11548,0.0981 0.17298,0.14786 0.40975,0.35321 0.82529,0.70062 1.24615,1.04176 0.057,0.0464 0.11307,0.0933 0.17057,0.13916 0.4426,0.35514 0.89294,0.70256 1.34762,1.04369 l 0.27397,0.20439 c 0.45758,0.33872 0.91951,0.67115 1.38869,0.99537 0.0594,0.0411 0.12031,0.0812 0.17975,0.12225 0.44888,0.30731 0.9026,0.60785 1.36163,0.90163 0.0657,0.042 0.13046,0.085 0.19617,0.1266 a 52.21843,52.21843 0 0 0 1.75882,1.06495 c 0.49672,0.28847 0.99779,0.57017 1.50514,0.84269 0.0604,0.0324 0.12224,0.0638 0.18264,0.0961 0.48561,0.25851 0.97605,0.50928 1.47132,0.7533 0.072,0.0353 0.14302,0.072 0.2155,0.10726 0.5175,0.25223 1.04079,0.49431 1.56796,0.7301 0.10436,0.0469 0.20922,0.0928 0.31407,0.13916 0.53248,0.23387 1.06833,0.46097 1.60999,0.67744 0.0604,0.0242 0.12177,0.0469 0.18216,0.071 0.51943,0.20584 1.04273,0.40298 1.57037,0.59239 0.0532,0.0188 0.10486,0.0406 0.15752,0.0594 10.72056,3.81672 18.34869,24.82828 18.34869,24.82828 1.73804,9.47827 8.81727,17.15182 18.10661,19.98429 7.29473,11.09502 19.84803,18.42599 34.11955,18.42599 14.28071,0 26.84077,-7.34063 34.1326,-18.44919 9.25504,-2.84986 16.30431,-10.50795 18.03751,-19.96254 0,0 7.62765,-21.01155 18.34869,-24.82828 0.0532,-0.0188 0.10485,-0.0406 0.15752,-0.0594 a 54.073882,54.073882 0 0 0 1.57037,-0.59239 c 0.0604,-0.0242 0.12177,-0.0469 0.18216,-0.071 a 54.379259,54.379259 0 0 0 1.92407,-0.81659 c 0.52716,-0.2358 1.05046,-0.47836 1.56795,-0.73011 0.072,-0.0353 0.14351,-0.0715 0.21551,-0.10726 a 53.999954,53.999954 0 0 0 1.47131,-0.7533 c 0.0609,-0.0324 0.12225,-0.0638 0.18265,-0.0962 a 53.08769,53.08769 0 0 0 1.80133,-1.01567 c 0.49286,-0.2904 0.98088,-0.58659 1.46262,-0.89197 0.0657,-0.0416 0.13046,-0.0846 0.19618,-0.1266 0.45903,-0.29378 0.91323,-0.59432 1.36211,-0.90163 0.0599,-0.0411 0.12032,-0.0807 0.17975,-0.12225 a 52.495298,52.495298 0 0 0 1.66266,-1.19976 c 0.45468,-0.34113 0.90502,-0.68855 1.34762,-1.04369 0.057,-0.0459 0.11307,-0.0933 0.17057,-0.13916 0.42134,-0.34113 0.8364,-0.68807 1.24614,-1.04176 l 0.17299,-0.14786 a 51.897108,51.897108 0 0 0 1.51093,-1.36984 c 0.41168,-0.38752 0.81853,-0.78036 1.21668,-1.18092 0.0503,-0.0503 0.0991,-0.10196 0.1493,-0.15269 0.37883,-0.38365 0.75088,-0.77311 1.11714,-1.16836 l 0.1609,-0.17201 c 0.38076,-0.41458 0.7533,-0.83592 1.12004,-1.26258 l 0.22372,-0.26189 c 0.36529,-0.43052 0.7243,-0.86539 1.0751,-1.30751 0.043,-0.0541 0.0841,-0.10872 0.12708,-0.16284 0.33195,-0.42182 0.65714,-0.84945 0.97556,-1.2819 0.0488,-0.0667 0.099,-0.1324 0.14786,-0.19908 a 51.500891,51.500891 0 0 0 1.1611,-1.66314 c 0.31456,-0.46966 0.62332,-0.94367 0.92241,-1.42445 0.0343,-0.0551 0.0672,-0.11065 0.10099,-0.16621 0.28267,-0.45807 0.5576,-0.92097 0.82529,-1.38821 0.043,-0.0749 0.087,-0.14931 0.12998,-0.22469 a 50.182264,50.182264 0 0 0 0.96445,-1.78828 49.234243,49.234243 0 0 0 0.75571,-1.52737 c 0.0266,-0.0561 0.0512,-0.11258 0.0773,-0.16863 a 47.995342,47.995342 0 0 0 0.66342,-1.48388 c 0.0353,-0.0822 0.0715,-0.16381 0.1063,-0.24643 a 48.594499,48.594499 0 0 0 0.63008,-1.57085 l 0.1237,-0.32761 c 0.20052,-0.53586 0.39428,-1.0751 0.57645,-1.61917 0.0188,-0.0556 0.0358,-0.1121 0.0541,-0.16767 0.17202,-0.51991 0.33485,-1.04369 0.48996,-1.57037 0.0261,-0.0884 0.0532,-0.17636 0.0788,-0.26527 a 50.956335,50.956335 0 0 0 0.9142,-3.69496 c 0.0111,-0.0541 0.0208,-0.10872 0.0319,-0.16283 0.11065,-0.54553 0.21115,-1.09395 0.30392,-1.64575 0.016,-0.0952 0.0333,-0.1899 0.0488,-0.28557 a 49.09895,49.09895 0 0 0 0.28894,-2.07434 c 0.0696,-0.58756 0.13192,-1.17705 0.18072,-1.77041 0.004,-0.0517 0.007,-0.10388 0.0111,-0.15558 0.0449,-0.56775 0.0792,-1.13889 0.10437,-1.71195 0.004,-0.1005 0.0101,-0.20101 0.014,-0.30151 0.0227,-0.58949 0.0343,-1.18189 0.0362,-1.77621 0,-0.0551 0.003,-0.1092 0.003,-0.1638 0,-0.11114 -0.004,-0.22179 -0.004,-0.33292 -9.7e-4,-0.12853 9.6e-4,-0.25802 -9.7e-4,-0.38897 z"
       id="path2"
       style="fill:#ff0000;stroke-width:0.483191" />
    <path
       fill="#ffedca"
       d="m 192.84071,200.61086 c 13.26504,0 24.01845,10.75341 24.01845,24.01845 v 58.72991 h -24.01845 c -13.26504,0 -24.01845,-10.75341 -24.01845,-24.01845 v -34.71146 c 0,-13.26504 10.75341,-24.01845 24.01845,-24.01845 z m 96.68648,0 c -13.26504,0 -24.01845,10.75341 -24.01845,24.01845 v 58.72991 h 24.01845 c 13.26504,0 24.01845,-10.75341 24.01845,-24.01845 v -34.71146 c 0,-13.26504 -10.75341,-24.01845 -24.01845,-24.01845 z m 54.01058,66.97653 0.009,-0.0304 a 53.453949,53.453949 0 0 0 0.5291,-2.05308 c 0.13722,-0.57983 0.2672,-1.16207 0.3851,-1.74915 0.0111,-0.0556 0.0208,-0.11162 0.0319,-0.16767 0.11065,-0.56098 0.21115,-1.12583 0.30393,-1.6931 0.0159,-0.0981 0.0333,-0.19569 0.0488,-0.29378 0.0923,-0.58659 0.17346,-1.17657 0.24594,-1.76993 0.015,-0.12128 0.029,-0.24304 0.043,-0.36432 0.0696,-0.60447 0.13191,-1.21136 0.18071,-1.82163 0.004,-0.0532 0.007,-0.10679 0.0111,-0.15994 0.0387,-0.50445 0.0662,-1.0118 0.0904,-1.52011 -0.03,0.0314 -0.0585,0.0638 -0.0884,0.0952 -0.058,0.0604 -0.11452,0.12177 -0.17299,0.18217 a 60.61242,60.61242 0 0 1 -1.70228,1.68923 c -0.47981,0.45855 -0.96541,0.91082 -1.4602,1.35342 -0.0652,0.0585 -0.13143,0.115 -0.19666,0.17298 a 62.408924,62.408924 0 0 1 -1.4486,1.24567 c -0.0662,0.0551 -0.13095,0.11113 -0.19763,0.16622 a 61.645482,61.645482 0 0 1 -1.88009,1.48871 59.773601,59.773601 0 0 1 -1.61,1.1872 c -0.0604,0.043 -0.12176,0.0845 -0.18216,0.12707 a 72.201752,72.201752 0 0 1 -1.60516,1.09395 c -0.0759,0.0503 -0.15124,0.10147 -0.2271,0.15124 a 60.084776,60.084776 0 0 1 -1.69552,1.06398 l -0.34306,0.20633 a 60.463598,60.463598 0 0 1 -1.7448,1.00552 c -0.0681,0.0377 -0.13723,0.0739 -0.20536,0.11113 a 62.114177,62.114177 0 0 1 -1.71194,0.90212 c -0.0836,0.042 -0.16622,0.086 -0.24981,0.12756 a 60.925045,60.925045 0 0 1 -2.18209,1.03693 60.369859,60.369859 0 0 1 -1.86657,0.80838 c -0.13964,0.0575 -0.28267,0.10871 -0.41603,0.17636 -0.50107,0.25319 -1.03644,0.42134 -1.5694,0.59916 -0.0778,0.0261 -0.15269,0.0594 -0.22952,0.0874 -12.42911,4.55311 -21.27247,29.61863 -21.27247,29.61863 -1.30558,7.32759 -5.2117,13.7521 -10.73022,18.28684 -2.05646,-10.99935 -11.00032,-19.57019 -22.18474,-21.07726 v -0.24305 h -49.16128 c -13.37907,0 -24.40403,10.04795 -25.95943,23.0081 -6.70717,-4.54876 -11.51878,-11.68114 -12.99638,-19.97414 0,0 -8.84336,-25.06553 -21.27247,-29.61863 -0.0768,-0.028 -0.15172,-0.0614 -0.22952,-0.0875 -0.53296,-0.17781 -1.06833,-0.34596 -1.56989,-0.59916 -0.13336,-0.0676 -0.27638,-0.11838 -0.41554,-0.17588 a 59.866857,59.866857 0 0 1 -2.23089,-0.97411 c -0.61124,-0.28122 -1.21764,-0.57017 -1.81777,-0.87119 -0.0836,-0.042 -0.16621,-0.0855 -0.2498,-0.12757 a 65.236073,65.236073 0 0 1 -1.71678,-0.90453 c -0.0667,-0.0362 -0.13433,-0.0715 -0.20053,-0.10823 a 60.463598,60.463598 0 0 1 -1.7448,-1.00552 l -0.34306,-0.20633 a 60.084776,60.084776 0 0 1 -1.69552,-1.06398 c -0.0763,-0.0498 -0.15124,-0.10099 -0.2271,-0.15124 a 67.494024,67.494024 0 0 1 -1.59356,-1.08573 c -0.0648,-0.0454 -0.12998,-0.0894 -0.19376,-0.13529 a 62.466907,62.466907 0 0 1 -1.92793,-1.43073 61.645482,61.645482 0 0 1 -1.56216,-1.24519 c -0.0662,-0.0546 -0.13143,-0.11113 -0.19762,-0.16621 a 62.669364,62.669364 0 0 1 -1.45344,-1.25002 c -0.0638,-0.0565 -0.12853,-0.1121 -0.19183,-0.16863 a 60.401749,60.401749 0 0 1 -1.75157,-1.63367 60.61242,60.61242 0 0 1 -1.41091,-1.40898 c -0.0531,-0.0551 -0.10486,-0.11065 -0.15752,-0.16622 a 0.31310764,0.31310764 0 0 0 -0.002,-0.0222 c -0.004,-0.0517 -0.007,-0.10388 -0.0111,-0.15559 a 49.941635,49.941635 0 0 1 -0.0937,-1.53074 c 0.0203,0.55856 0.0401,1.11713 0.0725,1.67184 -0.0232,-0.0247 -0.0459,-0.0503 -0.0696,-0.0749 0.0242,0.50832 0.0517,1.01567 0.0904,1.52012 0.004,0.0532 0.007,0.10679 0.0111,0.15994 a 51.410052,51.410052 0 0 0 0.22371,2.18595 c 0.0725,0.59288 0.15366,1.18334 0.24595,1.76993 0.0155,0.0981 0.0329,0.19569 0.0488,0.29378 0.0329,0.20004 0.0725,0.39815 0.10727,0.59722 a 73.444518,73.444518 0 0 0 1.87671,8.97576 c -2.59328,8.54522 -4.06218,15.44809 -2.09946,15.44809 12.32233,0 1.62159,5.15419 1.62159,5.15419 0,0 -2.42369,0.46097 1.0118,4.67198 1.236,1.5148 12.96836,5.23295 7.129,5.46778 -10.10207,0.40685 6.73906,9.60922 7.70979,10.24945 8.2959,5.476 16.28401,4.03174 20.63563,3.07551 a 10.307909,10.307909 0 0 1 1.39787,-0.19666 56.153536,56.153536 0 0 0 8.04657,2.60391 c 2.85953,5.41899 4.52025,10.1243 4.52025,10.1243 2.0009,11.22984 11.08247,20.00217 22.46693,21.53726 l 0.0705,0.009 c 0.36046,0.0478 0.72237,0.0899 1.08718,0.12322 0.087,0.008 0.17492,0.0126 0.26238,0.0198 0.31165,0.0251 0.62379,0.0493 0.93835,0.0638 0.25658,0.0121 0.51557,0.015 0.77359,0.0193 0.14496,0.002 0.28847,0.0111 0.43391,0.0111 l 0.0261,-4.8e-4 0.0266,4.8e-4 c 0.60109,0 1.19735,-0.0208 1.78878,-0.0599 0.90839,0.0957 1.83032,0.14641 2.76433,0.14641 9.80201,0 18.33951,-5.39579 22.8182,-13.37569 4.4787,7.9799 13.0162,13.37569 22.8182,13.37569 0.68565,0 1.3626,-0.0348 2.0352,-0.0865 l 0.0266,-4.8e-4 0.0261,4.8e-4 c 0.14544,0 0.28895,-0.009 0.43391,-0.0111 0.2585,-0.005 0.51701,-0.008 0.77359,-0.0193 0.31455,-0.014 0.62669,-0.0387 0.93835,-0.0638 0.0875,-0.007 0.1754,-0.0121 0.26238,-0.0198 a 25.959909,25.959909 0 0 0 1.08717,-0.12322 l 0.0705,-0.009 c 11.38446,-1.53509 20.46555,-10.30742 22.46692,-21.53726 0,0 1.96611,-5.56974 5.30302,-11.56855 3.94381,-0.98378 7.88664,-1.56023 10.60411,-0.963 4.35161,0.95623 12.33972,2.40049 20.63563,-3.07551 0.97073,-0.64071 17.81186,-9.8426 7.70979,-10.24945 -5.83936,-0.23531 5.89299,-3.95346 7.129,-5.46778 3.43548,-4.21053 1.0118,-4.67198 1.0118,-4.67198 0,0 -10.70026,-5.15419 1.62159,-5.15419 2.25118,-4.8e-4 -0.0174,-9.09462 -3.31808,-19.3286 z"
       id="path4"
       style="fill:#18edca;fill-opacity:1;stroke-width:0.483191" />
    <path
       fill="#2b3b47"
       d="m 306.59397,230.4421 c -3.27168,0 -6.23364,0.0208 -8.88926,0.13432 2.54255,2.01781 4.17525,5.13246 4.17525,8.63028 v 15.91775 c 0,6.08289 -4.93096,11.01433 -11.01433,11.01433 -4.27189,0 -7.97313,-2.43383 -9.79959,-5.98866 v 37.80581 a 2.13812,2.13812 0 0 1 -4.27624,0 V 242.0121 c 0,-7.23337 3.12334,-11.81836 9.54881,-14.01736 5.34361,-1.82888 12.58664,-1.82888 20.25536,-1.82888 a 2.13812,2.13812 0 0 1 0,4.27624 z m -133.53412,-2.13812 a 2.1381193,2.1381193 0 0 0 2.13812,2.13812 c 3.39296,0 6.45156,0.0227 9.18207,0.14785 -2.53289,2.01781 -4.15786,5.12666 -4.15786,8.61675 v 15.91775 c 0,6.08289 4.93145,11.01433 11.01434,11.01433 4.04189,0 7.57353,-2.1787 9.48938,-5.42478 v 37.24193 a 2.13812,2.13812 0 0 0 4.27624,0 V 242.0121 c 0,-7.23337 -3.12334,-11.81836 -9.54882,-14.01736 -5.34312,-1.82888 -12.58663,-1.82888 -20.25487,-1.82888 a 2.1381193,2.1381193 0 0 0 -2.1386,2.13812 z m 45.00101,96.22358 c -0.0106,-0.53344 -0.43971,-0.93981 -0.98571,-0.94705 -49.31832,0.99295 -64.23442,8.58243 -64.84518,8.9052 a 0.96649152,0.96649152 0 1 0 0.90309,1.70905 c 0.14544,-0.0768 15.11952,-7.6982 63.98122,-8.68149 a 0.96589841,0.96589841 0 0 0 0.94658,-0.98571 z m -6.47041,6.58347 a 0.96734798,0.96734798 0 0 0 -1.15869,-0.7243 c -28.77112,6.64098 -52.40833,13.99707 -52.64413,14.07052 a 0.96686479,0.96686479 0 0 0 0.57645,1.84482 c 0.23483,-0.0734 23.80633,-7.40828 52.50255,-14.03186 a 0.96686479,0.96686479 0 0 0 0.72382,-1.15918 z m 11.50477,1.99075 c -34.48484,7.96057 -55.16831,27.64818 -55.37318,27.8458 a 0.9663816,0.9663816 0 1 0 1.34278,1.38966 c 0.2015,-0.19376 20.52837,-19.51898 54.46527,-27.35198 a 0.9663816,0.9663816 0 0 0 0.7243,-1.15918 0.96976394,0.96976394 0 0 0 -1.15917,-0.7243 z m 102.35721,-0.94415 c -0.61076,-0.32278 -15.52637,-7.91225 -64.84469,-8.90521 -0.5262,0.005 -0.97508,0.41313 -0.98571,0.94705 a 0.96686479,0.96686479 0 0 0 0.94705,0.98571 c 48.70564,0.97991 63.83579,8.60563 63.98123,8.68149 a 0.9663816,0.9663816 0 1 0 0.90212,-1.70904 z m -5.5567,11.97201 c -0.23531,-0.0734 -23.87252,-7.42954 -52.64364,-14.07051 a 0.97121351,0.97121351 0 0 0 -1.15917,0.7243 0.96686479,0.96686479 0 0 0 0.7243,1.15918 c 28.6967,6.62358 52.26772,13.95841 52.50207,14.03186 a 0.96639547,0.96639547 0 1 0 0.57644,-1.84483 z m -64.97901,-11.02786 a 0.96976394,0.96976394 0 0 0 -1.15918,0.7243 0.96686479,0.96686479 0 0 0 0.72431,1.15918 c 33.93642,7.83349 54.26377,27.15822 54.46526,27.35198 a 0.96348246,0.96348246 0 0 0 1.36598,-0.0237 0.96589841,0.96589841 0 0 0 -0.0237,-1.36598 c -0.20488,-0.19762 -20.88834,-19.88523 -55.3727,-27.8458 z m 8.8593,-18.34096 c 5.51852,-4.05107 1.04659,-10.39729 -7.32614,-10.39729 h -31.0136 c -8.37273,0 -12.84418,6.34622 -7.32614,10.39729 l 9.6126,7.05652 c 7.27105,5.33781 19.16914,5.33781 26.44068,0 z m 78.22134,-81.55922 c -0.0193,-4.93096 -0.51846,-9.82858 -1.44667,-14.65035 a 252.44787,252.44787 0 0 1 -0.83737,3.65534 c -0.44115,1.8023 -0.90308,3.63311 -1.4056,5.44846 -0.25126,0.90744 -0.50204,1.81825 -0.77262,2.71409 a 98.34334,98.34334 0 0 1 -0.81515,2.67639 120.81944,120.81944 0 0 1 -1.74142,5.1455 102.74376,102.74376 0 0 1 -1.84965,4.71642 80.47881,80.47881 0 0 1 -1.88203,4.11389 c -0.29668,0.63974 -0.62573,1.21378 -0.91758,1.78297 a 29.241258,29.241258 0 0 1 -0.87602,1.57955 c -0.55374,0.99489 -1.09298,1.81294 -1.5322,2.49955 -0.43439,0.69145 -0.82722,1.18285 -1.07269,1.54621 l -0.388,0.54504 -0.0739,0.1034 a 1.8945911,1.8945911 0 0 0 2.77835,2.53386 l 0.55519,-0.47691 c 0.35321,-0.31794 0.91564,-0.75765 1.55587,-1.37468 0.64554,-0.61317 1.44378,-1.35728 2.28743,-2.26327 a 33.06233,33.06233 0 0 0 1.34278,-1.45054 c 0.45469,-0.52232 0.963,-1.0606 1.43653,-1.65154 a 86.844849,86.844849 0 0 0 3.0499,-3.85297 110.41248,110.41248 0 0 0 3.15137,-4.46854 141.36858,141.36858 0 0 0 1.61917,-2.48457 49.451679,49.451679 0 0 0 -2.16566,-6.3873 z m -40.72428,-42.8798 0.46386,-0.41023 c 0.29764,-0.27107 0.76344,-0.65424 1.2906,-1.18575 l 0.89004,-0.87409 1.00504,-1.06157 a 63.424108,63.424108 0 0 0 2.2937,-2.63436 52.78328,52.78328 0 0 0 1.24905,-1.54911 63.386419,63.386419 0 0 0 1.29495,-1.68537 109.449,109.449 0 0 0 2.6735,-3.71574 156.70168,156.70168 0 0 0 2.7107,-4.06073 c 0.20584,-0.31939 0.40974,-0.64603 0.61462,-0.9688 a 102.66113,102.66113 0 0 0 -5.90315,-5.61951 184.88426,184.88426 0 0 1 -1.20701,3.28667 148.6121,148.6121 0 0 1 -1.72547,4.33277 104.09959,104.09959 0 0 1 -1.75012,3.98149 c -0.28991,0.6267 -0.57451,1.236 -0.86588,1.81293 a 49.102332,49.102332 0 0 1 -0.84655,1.67136 59.664883,59.664883 0 0 1 -1.58438,2.85566 l -0.70691,1.15821 -0.63249,0.95478 c -0.37641,0.58756 -0.71126,1.0031 -0.92725,1.3051 l -0.33678,0.4571 -0.0536,0.0725 a 1.3993206,1.3993206 0 0 0 0.0788,1.75639 1.3998037,1.3998037 0 0 0 1.97481,0.12032 z m -29.10597,-10.60652 a 1.3940055,1.3940055 0 0 0 1.95741,-0.23532 l 0.45806,-0.58321 c 0.14303,-0.19182 0.3479,-0.42617 0.53683,-0.70932 l 0.66149,-0.97556 a 43.378454,43.378454 0 0 0 1.59066,-2.69234 c 0.29861,-0.52427 0.58369,-1.08718 0.88859,-1.68199 0.31214,-0.59384 0.61413,-1.22296 0.92917,-1.88058 0.63492,-1.31476 1.28094,-2.74935 1.94001,-4.2743 a 181.30237,181.30237 0 0 0 1.99655,-4.81742 c 1.33795,-3.35286 2.67639,-6.95311 3.95685,-10.56835 a 104.34795,104.34795 0 0 0 -7.83349,-3.46931 c -0.073,0.46677 -0.14689,0.93401 -0.2213,1.40126 -0.59143,3.708 -1.24035,7.40296 -1.92842,10.84135 a 177.58856,177.58856 0 0 1 -1.05529,4.93531 c -0.35804,1.56071 -0.71898,3.02912 -1.08621,4.3666 -0.18168,0.67018 -0.35611,1.31379 -0.5431,1.91198 -0.18072,0.60302 -0.34984,1.1785 -0.53296,1.70083 a 40.057967,40.057967 0 0 1 -0.9833,2.68799 l -0.41651,0.95141 c -0.11983,0.28073 -0.24594,0.48367 -0.33582,0.66873 l -0.28701,0.55326 -0.0681,0.13142 a 1.3925559,1.3925559 0 0 0 0.37592,1.73756 z M 240.6075,172.7984 a 1.4094676,1.4094676 0 0 0 1.58874,-1.20459 l 4.25836,-30.92953 a 105.39841,105.39841 0 0 0 -5.65479,-0.15559 c -1.89894,0 -3.78386,0.0551 -5.65478,0.15559 l 4.25836,30.92953 a 1.4109171,1.4109171 0 0 0 1.20411,1.20459 z m -40.4479,-10.93219 a 181.30237,181.30237 0 0 0 1.99655,4.81741 c 0.65907,1.52495 1.3051,2.95955 1.94001,4.27431 0.31552,0.65762 0.61703,1.28625 0.92917,1.88058 0.30441,0.5948 0.5895,1.15772 0.88859,1.68198 a 43.378454,43.378454 0 0 0 1.59067,2.69234 l 0.66148,0.97556 c 0.18893,0.28315 0.3938,0.5175 0.53683,0.70933 l 0.45806,0.58321 a 1.3940055,1.3940055 0 0 0 2.33333,-1.50272 l -0.0676,-0.13095 -0.28702,-0.55325 c -0.0899,-0.18458 -0.21599,-0.388 -0.33582,-0.66874 l -0.41651,-0.9514 a 40.057967,40.057967 0 0 1 -0.98329,-2.68799 c -0.18313,-0.52233 -0.35225,-1.09781 -0.53296,-1.70083 -0.187,-0.59819 -0.36094,-1.2418 -0.54311,-1.91199 -0.36722,-1.33747 -0.72817,-2.80589 -1.08621,-4.36659 a 175.11559,175.11559 0 0 1 -1.05529,-4.93531 c -0.68855,-3.43839 -1.33699,-7.13287 -1.92841,-10.84136 -0.10775,-0.67308 -0.21261,-1.34568 -0.31649,-2.01828 a 104.60259,104.60259 0 0 0 -7.98232,3.39441 l 0.24208,0.6871 c 1.28094,3.61716 2.61938,7.21887 3.9583,10.57318 z m -29.3089,15.33889 a 109.26152,109.26152 0 0 0 2.67349,3.71574 63.386419,63.386419 0 0 0 1.29495,1.68537 52.936934,52.936934 0 0 0 1.24905,1.54911 63.424108,63.424108 0 0 0 2.29371,2.63435 l 1.00504,1.06157 0.89003,0.8741 c 0.52668,0.53102 0.99296,0.91468 1.29061,1.18575 l 0.46386,0.41023 a 1.3993206,1.3993206 0 0 0 2.05259,-1.87817 l -0.0532,-0.072 -0.33678,-0.4571 c -0.21599,-0.302 -0.55084,-0.71754 -0.92724,-1.3051 l -0.6325,-0.95478 -0.70691,-1.15821 a 59.244024,59.244024 0 0 1 -1.58438,-2.85566 49.102332,49.102332 0 0 1 -0.84655,-1.67136 59.11163,59.11163 0 0 1 -0.86588,-1.81293 104.09959,104.09959 0 0 1 -1.75012,-3.98149 147.79357,147.79357 0 0 1 -1.72547,-4.33277 190.20613,190.20613 0 0 1 -1.60613,-4.40332 102.9926,102.9926 0 0 0 -6.1631,5.69778 155.91552,155.91552 0 0 0 3.98488,6.06888 z m -18.37865,80.40585 a 1.8941079,1.8941079 0 0 0 2.78125,-2.52805 l -0.0768,-0.10872 -0.38172,-0.53973 c -0.24111,-0.35949 -0.62766,-0.84558 -1.05384,-1.53026 -0.42859,-0.68178 -0.95817,-1.49016 -1.49499,-2.47877 -0.27784,-0.48416 -0.56968,-0.99972 -0.84897,-1.56747 -0.28025,-0.56678 -0.60205,-1.13357 -0.88472,-1.77041 -0.28798,-0.63202 -0.60544,-1.27079 -0.89825,-1.95934 -0.28943,-0.69145 -0.60254,-1.39111 -0.89535,-2.13039 a 95.198251,95.198251 0 0 1 -1.73176,-4.69227 111.01357,111.01357 0 0 1 -1.59743,-5.12085 92.805974,92.805974 0 0 1 -0.73445,-2.66335 c -0.24304,-0.89197 -0.46531,-1.79747 -0.68758,-2.70104 -0.4455,-1.80616 -0.84607,-3.62828 -1.22634,-5.42091 -0.36674,-1.79941 -0.71464,-3.56982 -1.01663,-5.29288 a 154.57757,154.57757 0 0 1 -0.17443,-0.9915 c -1.27804,5.70068 -1.95209,11.5212 -1.95209,17.38617 0,0.18554 0.007,0.36916 0.008,0.55422 a 50.060983,50.060983 0 0 0 -1.80858,5.49484 130.79975,130.79975 0 0 0 1.54524,2.48119 c 1.01519,1.58583 2.04487,3.09242 3.05329,4.49754 0.50251,0.70304 1.02388,1.37226 1.50852,2.02312 0.48947,0.64941 1.0031,1.25774 1.47228,1.84772 0.46241,0.59336 0.96735,1.13163 1.41237,1.65589 0.44405,0.52523 0.8968,1.00504 1.32442,1.45199 0.83061,0.90744 1.62449,1.64817 2.26278,2.26085 0.63492,0.6151 1.19397,1.05191 1.54428,1.36792 z"
       id="path6"
       style="stroke-width:0.483191" />
    <path
       fill="#ff6e83"
       d="m 146.54572,199.74837 c -10.24413,-12.81615 -11.42505,-28.67109 -9.92571,-41.58244 1.64382,-14.15507 14.8586,-22.91339 26.29138,-7.488 1.46648,1.97866 3.67805,9.39081 5.40352,18.39024 -9.30867,8.89602 -16.74884,19.35952 -21.76919,30.6802 z m 187.8641,0.0309 c 10.26732,-12.82147 11.45162,-28.69187 9.95083,-41.61384 -1.64382,-14.15507 -14.8586,-22.91339 -26.29138,-7.48801 -1.46842,1.98109 -3.68336,9.40869 -5.4098,18.4231 9.30094,8.89796 16.73676,19.35952 21.75035,30.67875 z m -92.5093,136.78117 c -3.74183,6.66707 -10.31805,11.52748 -18.09646,12.94758 5.10781,1.1442 11.03366,2.00186 17.36443,2.00186 6.6144,0 12.79296,-0.93352 18.05152,-2.15503 -7.43872,-1.59356 -13.7028,-6.35058 -17.31949,-12.79441 z"
       id="path8"
       style="fill:#ffff00;stroke-width:0.483191" />
  </g>
</svg>
